ffmpeg started on 2025-06-27 at 12:15:28
Report written to "D:\Convert\FFMetrics\reports\psnr_report-6.txt"
Log level: 32
Command line:
ffmpeg -hide_banner -nostdin -i "G:\\\xc0\xed\xe8\xec\xe5\\[\xd2\xee\xef]\\\xd8\xea\xee\xeb\xfc\xed\xfb\xe5 \xe2\xee\xe9\xed\xfb\\\xd2\xc2-1\\Bonus\\[W] Ikkitousen NCOP [BDrip 960x720 x264 Vorbis]_HEVC_HEVC.mkv" -i "G:\\\xc0\xed\xe8\xec\xe5\\[\xd2\xee\xef]\\\xd8\xea\xee\xeb\xfc\xed\xfb\xe5 \xe2\xee\xe9\xed\xfb\\\xd2\xc2-1\\Bonus\\[W] Ikkitousen NCOP [BDrip 960x720 x264 Vorbis]_HEVC.mkv" -lavfi "[0:v]settb=AVTB,setpts=PTS-STARTPTS,format=pix_fmts=yuv420p10,fps=24000/1001,scale=960:720:flags=bicubic[main];[1:v]settb=AVTB,setpts=PTS-STARTPTS,format=pix_fmts=yuv420p10,fps=24000/1001,scale=960:720:flags=bicubic[ref];[main][ref]psnr=eof_action=endall:stats_file='D\\:/Convert/FFMetrics/logs/psnr_logfile-6.txt'" -f null -
Input #0, matroska,webm, from 'G:\Аниме\[Топ]\Школьные войны\ТВ-1\Bonus\[W] Ikkitousen NCOP [BDrip 960x720 x264 Vorbis]_HEVC_HEVC.mkv':
  Metadata:
    ENCODER         : Lavf61.7.100
  Duration: 00:01:35.15, start: -0.021000, bitrate: 1212 kb/s
  Stream #0:0: Video: hevc (Main 10), yuv420p10le(tv, bt709, progressive), 960x720 [SAR 1:1 DAR 4:3], 23.98 fps, 23.98 tbr, 1k tbn (default)
      Metadata:
        ENCODER         : Lavc61.19.100 libx265
        BPS             : 1029769
        DURATION        : 00:01:35.094708333
        NUMBER_OF_FRAMES: 2280
        NUMBER_OF_BYTES : 12240615
        _STATISTICS_WRITING_APP: mkvpropedit v66.0.0 ('Josie') 64-bit
        _STATISTICS_WRITING_DATE_UTC: 2025-06-27 08:44:57
        _STATISTICS_TAGS: BPS DURATION NUMBER_OF_FRAMES NUMBER_OF_BYTES
  Stream #0:1(jpn): Audio: aac (LC), 48000 Hz, stereo, fltp (default)
      Metadata:
        title           : Stereo
        ENCODER         : Lavc61.19.100 aac
        BPS             : 178955
        DURATION        : 00:01:35.125000000
        NUMBER_OF_FRAMES: 4460
        NUMBER_OF_BYTES : 2127888
        _STATISTICS_WRITING_APP: mkvpropedit v66.0.0 ('Josie') 64-bit
        _STATISTICS_WRITING_DATE_UTC: 2025-06-27 08:44:57
        _STATISTICS_TAGS: BPS DURATION NUMBER_OF_FRAMES NUMBER_OF_BYTES
Input #1, matroska,webm, from 'G:\Аниме\[Топ]\Школьные войны\ТВ-1\Bonus\[W] Ikkitousen NCOP [BDrip 960x720 x264 Vorbis]_HEVC.mkv':
  Metadata:
    creation_time   : 2024-11-19T12:21:09.000000Z
    ENCODER         : Lavf61.1.100
  Duration: 00:01:35.13, start: -0.019000, bitrate: 1734 kb/s
  Stream #1:0: Video: hevc (Main 10), yuv420p10le(tv, bt709), 960x720 [SAR 1:1 DAR 4:3], 23.98 fps, 23.98 tbr, 1k tbn (default)
      Metadata:
        DURATION        : 00:01:35.095000000
  Stream #1:1(jpn): Audio: aac (LC), 48000 Hz, stereo, fltp (default)
      Metadata:
        title           : Stereo
        DURATION        : 00:01:35.127000000
Stream mapping:
  Stream #0:0 (hevc) -> settb:default
  Stream #1:0 (hevc) -> settb:default
  psnr:default -> Stream #0:0 (wrapped_avframe)
  Stream #0:1 -> #0:1 (aac (native) -> pcm_s16le (native))
Output #0, null, to 'pipe:':
  Metadata:
    encoder         : Lavf61.7.100
  Stream #0:0: Video: wrapped_avframe, yuv420p10le(tv, bt709, progressive), 960x720 [SAR 1:1 DAR 4:3], q=2-31, 200 kb/s, 23.98 fps, 23.98 tbn
      Metadata:
        encoder         : Lavc61.19.100 wrapped_avframe
  Stream #0:1(jpn): Audio: pcm_s16le, 48000 Hz, stereo, s16, 1536 kb/s (default)
      Metadata:
        title           : Stereo
        _STATISTICS_TAGS: BPS DURATION NUMBER_OF_FRAMES NUMBER_OF_BYTES
        BPS             : 178955
        DURATION        : 00:01:35.125000000
        NUMBER_OF_FRAMES: 4460
        NUMBER_OF_BYTES : 2127888
        _STATISTICS_WRITING_APP: mkvpropedit v66.0.0 ('Josie') 64-bit
        _STATISTICS_WRITING_DATE_UTC: 2025-06-27 08:44:57
        encoder         : Lavc61.19.100 pcm_s16le
frame=  484 fps=0.0 q=-0.0 size=N/A time=00:00:20.18 bitrate=N/A speed=38.9x    frame= 1087 fps=1055 q=-0.0 size=N/A time=00:00:45.33 bitrate=N/A speed=  44x    frame= 1731 fps=1113 q=-0.0 size=N/A time=00:01:12.19 bitrate=N/A speed=46.4x    frame= 2191 fps=1040 q=-0.0 size=N/A time=00:01:31.38 bitrate=N/A speed=43.4x    [Parsed_psnr_10 @ 0000025ba6c14340] PSNR y:46.619209 u:50.799685 v:49.877223 average:47.539562 min:40.430270 max:120.354463
[out#0/null @ 0000025ba6c22bc0] video:980KiB audio:17840KiB subtitle:0KiB other streams:0KiB global headers:0KiB muxing overhead: unknown
frame= 2280 fps=1044 q=-0.0 Lsize=N/A time=00:01:35.09 bitrate=N/A speed=43.5x    
